<?xml version="1.0" encoding="UTF-8"?>
<svg version="1.1" xmlns="http://www.w3.org/2000/svg" width="504" height="505">
<path d="M0 0 C1.175625 0.83337891 1.175625 0.83337891 2.375 1.68359375 C3.138125 2.20824219 3.90125 2.73289062 4.6875 3.2734375 C5.244375 3.73878906 5.80125 4.20414062 6.375 4.68359375 C6.375 5.34359375 6.375 6.00359375 6.375 6.68359375 C6.96055664 6.94245361 7.54611328 7.20131348 8.14941406 7.46801758 C10.5438396 8.77581099 12.08593329 10.18095476 13.984375 12.1328125 C14.65726562 12.81666016 15.33015625 13.50050781 16.0234375 14.20507812 C16.71695313 14.91986328 17.41046875 15.63464844 18.125 16.37109375 C23.35142442 21.73165644 28.69901608 26.80224758 34.375 31.68359375 C41.39054782 37.97375258 45.59149684 42.52749749 46.8125 52.12109375 C46.06990347 58.16795124 44.08188017 63.57126538 39.375 67.62109375 C33.00654905 71.99940378 28.07648427 72.47505063 20.375 71.68359375 C15.02198394 70.07870468 11.39280433 65.95531924 7.66015625 61.9765625 C5.70504631 60.01476843 3.71160676 58.22504355 1.61328125 56.421875 C-2.6571586 52.72201378 -6.5671027 48.73524552 -10.5 44.68359375 C-21.18817529 33.39019327 -21.18817529 33.39019327 -35.375 28.37109375 C-39.95402268 28.44684964 -43.08577424 29.81637288 -46.625 32.68359375 C-49.85007712 36.15675372 -50.9170845 38.91883313 -51.1875 43.55859375 C-50.84617087 51.66516066 -46.12256119 56.21997419 -40.625 61.68359375 C-38.87847571 63.44097847 -37.13240358 65.19881265 -35.38671875 66.95703125 C-33.8784077 68.47272622 -32.3696095 69.98793438 -30.8605957 71.50292969 C-29.8329943 72.53555485 -28.80629286 73.56907643 -27.78051758 74.60351562 C-22.41780459 80.01013588 -17.06708032 85.36004345 -11.20214844 90.23144531 C-6.73805568 94.34172762 -4.94328025 99.45283059 -4.52734375 105.41796875 C-4.8127652 112.0397463 -7.98955431 117.15349909 -12.625 121.68359375 C-18.01977259 124.85698939 -23.48066829 125.65225192 -29.625 124.68359375 C-40.06574492 120.23586329 -47.9116034 110.50372913 -55.73974609 102.5324707 C-59.62970382 98.59054975 -63.63780282 94.88181439 -67.83056641 91.26464844 C-79.11542912 81.32168641 -87.57556108 68.45849448 -88.828125 53.2109375 C-89.11963099 37.10523162 -82.97308875 23.52706988 -71.87109375 11.95703125 C-71.12988281 11.20679688 -70.38867188 10.4565625 -69.625 9.68359375 C-68.97660156 8.97460938 -68.32820313 8.265625 -67.66015625 7.53515625 C-48.96298761 -12.4237845 -22.40722749 -14.97149575 0 0 Z " fill="#E632AA" transform="translate(418.625,334.31640625)"/>
<path d="M0 0 C10.95592935 10.07841653 18.59021961 22.86230542 20.13671875 37.82421875 C20.69845407 53.88210075 14.00585814 67.25008532 3.3684082 78.82104492 C-1.80795633 84.3169303 -7.11941898 89.68080532 -12.50390625 94.97265625 C-14.29294362 96.79490081 -15.96043405 98.68866818 -17.625 100.625 C-30.7728179 115.77943248 -30.7728179 115.77943248 -39.33984375 116.9921875 C-45.07413811 117.32546273 -49.52685529 116.05569702 -54.1875 112.6875 C-59.23581935 107.8586728 -61.32678442 104.08053325 -61.5625 97 C-61.44714393 88.27488601 -57.77748476 84.17287787 -51.8125 78.1875 C-50.63880859 77.05634766 -50.63880859 77.05634766 -49.44140625 75.90234375 C-47.4272424 73.92308742 -45.57890217 71.89885195 -43.75 69.75 C-41.0784144 66.62800851 -38.25178623 63.74635204 -35.3125 60.875 C-24.37963103 50.25621702 -24.37963103 50.25621702 -18.1875 36.6875 C-18.28179857 31.21818301 -19.72587519 27.89758423 -23.1875 23.6875 C-26.46151691 20.79418273 -29.12149033 19.39742844 -33.4375 19.0625 C-43.16952581 19.6987835 -50.25198464 27.23432301 -56.375 34.125 C-57.70078551 35.58297527 -59.02759929 37.04001621 -60.35546875 38.49609375 C-60.99210449 39.19984131 -61.62874023 39.90358887 -62.28466797 40.62866211 C-64.6794499 43.21978298 -67.17518543 45.6964052 -69.68481445 48.17553711 C-71.45343485 49.95507669 -73.08288918 51.82201098 -74.6875 53.75 C-79.34118451 59.13572477 -84.55535726 65.05885206 -91.921875 66.05859375 C-99.05455857 66.21566062 -103.76328241 65.4843382 -109.1875 60.6875 C-113.34768391 56.20730194 -114.34640072 52.91032735 -114.4375 46.875 C-114.46328125 45.85792969 -114.4890625 44.84085937 -114.515625 43.79296875 C-113.73062412 36.36349609 -108.89434705 31.87660209 -103.9375 26.75 C-103.29425781 26.07259766 -102.65101562 25.39519531 -101.98828125 24.69726562 C-98.83960765 21.39337572 -95.64800086 18.13834206 -92.41015625 14.921875 C-90.12611987 12.64911384 -87.94520973 10.3469755 -85.875 7.875 C-74.72829728 -4.93501916 -63.577533 -14.08897354 -46.8125 -18.125 C-27.82278079 -19.10722686 -13.89869955 -12.37711692 0 0 Z " fill="#C83DB8" transform="translate(161.1875,349.3125)"/>
<path d="M0 0 C4.18076131 2.4060708 7.34661838 5.79546389 10.65234375 9.265625 C12.66784904 11.34843187 14.73433078 13.24519221 16.9375 15.125 C20.42873185 18.11847206 23.64597703 21.31423596 26.87109375 24.58984375 C28.83178234 26.5199563 30.85319714 28.32984898 32.9375 30.125 C45.35922122 40.92122254 54.66552353 53.56499178 56.03125 70.5 C56.76658298 87.65776956 47.74026436 101.65426336 36.75 113.9375 C27.16189072 124.07350124 14.67810527 131.79355085 0.52734375 132.80078125 C-17.83342529 133.16761049 -31.23151621 125.73434009 -44.26123047 113.25610352 C-45.55083571 112.00744596 -46.83823026 110.75650164 -48.12353516 109.50341797 C-51.56303958 106.16796296 -55.06555818 102.89999205 -58.5625 99.625 C-59.51914551 98.72201172 -59.51914551 98.72201172 -60.49511719 97.80078125 C-64.37134462 94.1525672 -68.32599226 90.63513739 -72.40283203 87.21166992 C-76.73642339 83.06176779 -78.9345505 77.80980412 -79.4375 71.875 C-79.3343634 66.25405528 -77.29963624 61.89173123 -73.4765625 57.796875 C-68.57091945 53.38393846 -64.16452654 50.93098025 -57.34375 51.2109375 C-46.96256403 52.85584373 -40.46090592 60.86287604 -33.58789062 68.06640625 C-31.15666635 70.55281185 -28.52474392 72.78058171 -25.875 75.02734375 C-24.07233851 76.60869635 -22.41609663 78.27605279 -20.75 80 C-10.86087664 90.13673628 -10.86087664 90.13673628 2.05859375 94.71875 C7.43244252 94.50125865 10.54496189 92.83527736 14.46484375 89.23046875 C17.79149578 85.29561996 18.31918234 81.89190057 18.1875 76.86328125 C16.97952262 67.96954781 8.38977943 60.85547795 1.9453125 55.37890625 C-0.17372183 53.51975348 -2.14947617 51.57288601 -4.125 49.5625 C-6.66472186 46.9832494 -9.24951314 44.54032611 -12 42.1875 C-27.60242156 28.72112425 -27.60242156 28.72112425 -28.49609375 21.609375 C-28.62255934 15.3307302 -28.61882689 10.35045054 -24.7265625 5.21875 C-17.87880709 -1.8628312 -9.30080945 -4.00194191 0 0 Z " fill="#3A98F3" transform="translate(117.125,49.4375)"/>
<path d="M0 0 C5.0521902 3.70876689 7.66153819 8.02416909 8.71875 14.26171875 C8.81910465 21.32417732 6.79311432 26.7750301 2.09863281 32.09912109 C0.23522731 34.00434992 -1.66713939 35.85798232 -3.59375 37.69921875 C-4.95104081 39.02417771 -6.30653716 40.35097762 -7.66015625 41.6796875 C-8.29711426 42.30407715 -8.93407227 42.9284668 -9.59033203 43.57177734 C-12.05341028 46.03343309 -14.30243868 48.64318712 -16.5390625 51.30859375 C-18.41241266 53.4087621 -20.40419422 55.36214476 -22.42333984 57.32128906 C-28.69631294 63.41456224 -34.71764039 69.40017881 -35.59375 78.51171875 C-35.10081667 84.42691873 -32.9906579 87.78541193 -28.53125 91.63671875 C-23.8382256 93.98323095 -20.08540136 95.19018461 -15.05444336 93.52441406 C-7.53601058 89.96610729 -2.31114174 84.90778047 3.40625 78.94921875 C4.30408203 78.03720703 5.20191406 77.12519531 6.12695312 76.18554688 C10.64531297 71.56788242 15.02231786 66.86247317 19.24145508 61.97045898 C30.50084546 48.94707884 30.50084546 48.94707884 39.1640625 47.9921875 C45.98162203 47.71745003 50.16818683 49.06704811 55.40625 53.57421875 C60.11794765 59.04997548 61.06076078 63.32581257 61.21484375 70.3828125 C59.96352914 77.64437841 54.84131336 82.65588121 49.90625 87.76171875 C49.22409424 88.47440918 48.54193848 89.18709961 47.83911133 89.92138672 C45.47558334 92.37795468 43.09757157 94.81996057 40.71875 97.26171875 C39.77833152 98.23439673 38.83823879 99.20738974 37.8984375 100.18066406 C35.41061346 102.75412352 32.90922716 105.3137966 30.39907837 107.86547852 C29.41821301 108.86501194 28.44054431 109.86769429 27.46640015 110.8737793 C16.52120952 122.15489761 4.6165485 131.04899654 -11.57299805 131.73242188 C-28.56395976 131.95784094 -42.39334883 124.54782805 -54.61669922 113.09228516 C-65.81006759 102.10261776 -73.33184724 89.05570599 -73.53125 73.13671875 C-73.50170696 55.80761474 -65.71319042 44.09687527 -54.00683594 32.05224609 C-52.21300473 30.19090511 -50.45115125 28.30344465 -48.6953125 26.40625 C-42.2782544 19.47440482 -35.77619583 12.62527229 -29.15625 5.88671875 C-28.54096436 5.25008301 -27.92567871 4.61344727 -27.29174805 3.95751953 C-19.71416165 -3.67760756 -9.64996722 -5.63573905 0 0 Z " fill="#4087F6" transform="translate(398.28125,43.73828125)"/>
<path d="M0 0 C4.10997383 2.97023319 7.25331448 6.52556843 8.859375 11.34375 C10.50510536 25.21817126 10.45269658 39.39363743 10.859375 53.34375 C10.88950684 54.23723145 10.91963867 55.13071289 10.95068359 56.05126953 C11.47576556 72.42245569 9.20347705 87.66379435 -1.453125 100.71875 C-13.66391148 113.59606412 -30.25966239 117.06036054 -47.328125 117.59375 C-62.92583454 117.39547403 -77.49426999 112.96916898 -88.73046875 102.0078125 C-102.71923838 86.54534753 -102.58366928 66.0097782 -103.140625 46.34375 C-103.16078674 45.6709198 -103.18094849 44.9980896 -103.20172119 44.30487061 C-103.33069163 39.90613397 -103.42465626 35.50836118 -103.48165894 31.10809326 C-103.50412468 29.6517558 -103.53517555 28.19552297 -103.57522583 26.73956299 C-103.94311637 12.75650778 -103.94311637 12.75650778 -99.5690918 6.83959961 C-94.95466846 2.00750736 -90.86707408 0.04420072 -84.140625 -0.21875 C-77.86557099 0.08194616 -72.89710784 1.31161888 -68.578125 6.0625 C-65.63316009 10.01143022 -64.06687198 13.3969535 -63.87524414 18.37768555 C-63.82497826 19.59121956 -63.82497826 19.59121956 -63.7736969 20.82926941 C-63.74138474 21.70416519 -63.70907257 22.57906097 -63.67578125 23.48046875 C-63.59711407 25.35742644 -63.51833415 27.23437941 -63.43945312 29.11132812 C-63.32103863 32.05077947 -63.2047084 34.99029197 -63.09106445 37.92993164 C-62.53559197 52.13755791 -62.53559197 52.13755791 -61.32421875 66.30078125 C-61.1945874 67.50323486 -61.06495605 68.70568848 -60.93139648 69.94458008 C-59.79472091 74.83063568 -57.78804499 78.79617364 -54.078125 82.28125 C-48.30890629 84.36798868 -42.3811123 84.14392403 -36.640625 82.09375 C-31.6830055 78.62341635 -30.55311747 75.15937345 -29.140625 69.34375 C-28.8714675 65.59855065 -28.8714675 65.59855065 -28.96875 61.65625 C-28.97602112 60.92712402 -28.98329224 60.19799805 -28.99078369 59.44677734 C-29.06603795 53.78430557 -29.27793843 48.12704436 -29.5 42.46875 C-29.54719177 41.22351562 -29.54719177 41.22351562 -29.59533691 39.953125 C-29.62703979 39.11910156 -29.65874268 38.28507812 -29.69140625 37.42578125 C-29.72314941 36.58998535 -29.75489258 35.75418945 -29.78759766 34.89306641 C-29.85687264 33.17892103 -29.93283118 31.46503399 -30.01513672 29.75146484 C-30.96098151 9.65321258 -30.96098151 9.65321258 -24.72583008 2.78540039 C-17.47875702 -3.77844693 -8.48516081 -4.75169005 0 0 Z " fill="#3E9EEE" transform="translate(291.140625,2.65625)"/>
<path d="M0 0 C18.53655668 -0.40462544 34.27415097 1.2561769 48.5859375 14.19921875 C60.37789984 26.65904444 63.41946955 43.06072302 63.32055664 59.65454102 C62.8961904 74.26804472 58.87827633 87.93251355 48.8984375 98.94921875 C32.023221 114.66937035 9.23807466 113.7669066 -12.36083984 114.13183594 C-15.86539693 114.19496463 -19.36752253 114.29159207 -22.87109375 114.39453125 C-24.90620595 114.43582522 -26.94136226 114.47501979 -28.9765625 114.51171875 C-30.34663452 114.55655396 -30.34663452 114.55655396 -31.74438477 114.60229492 C-38.30177097 114.65957274 -43.70708721 113.34068292 -48.62792969 108.78662109 C-53.3599471 103.4361177 -54.57398517 98.74475958 -54.41796875 91.765625 C-53.75255957 86.36841721 -51.50402783 82.53156081 -47.6015625 78.82421875 C-40.08284453 73.93705207 -32.65708366 74.01665687 -23.89453125 73.76953125 C-21.67641354 73.69587495 -19.45831505 73.62163805 -17.24023438 73.546875 C-13.76469746 73.43355027 -10.28920502 73.32422281 -6.81323242 73.22509766 C-3.44398481 73.12706405 -0.07564834 73.01204789 3.29296875 72.89453125 C4.32138382 72.8694046 5.34979889 72.84427795 6.40937805 72.81838989 C12.91458996 72.57577049 20.38175575 72.26644806 25.52107239 67.78396606 C29.17818396 63.57622355 30.26779033 59.93552244 30.17578125 54.39453125 C29.68480428 50.50820651 28.24470877 47.32278234 25.8984375 44.19921875 C20.73851032 40.86676578 16.2004219 40.06200562 10.15527344 40.16503906 C8.42262238 40.18936005 8.42262238 40.18936005 6.65496826 40.21417236 C5.41015686 40.23501892 4.16534546 40.25586548 2.8828125 40.27734375 C0.91925294 40.29762725 -1.04430749 40.31787985 -3.00788498 40.33634567 C-7.84232247 40.38194851 -12.67636168 40.43475101 -17.51025391 40.52148438 C-20.22332751 40.56957665 -22.93592367 40.60412106 -25.64935303 40.62371826 C-28.20056391 40.64241824 -30.75172613 40.68035868 -33.30230713 40.74005127 C-40.49701103 40.76226519 -45.65126549 40.15903362 -51.1015625 35.19921875 C-55.82925484 29.94166387 -56.90098731 25.14620301 -56.58984375 18.10546875 C-55.62794585 12.38025245 -52.74091441 8.83857066 -48.7265625 4.82421875 C-43.60048777 1.65093439 -38.23411632 0.94810657 -32.296875 0.78515625 C-31.00330078 0.74608154 -29.70972656 0.70700684 -28.37695312 0.66674805 C-26.99350925 0.63503486 -25.61004474 0.60421136 -24.2265625 0.57421875 C-22.7936163 0.53895989 -21.36067362 0.50355787 -19.92773438 0.46801758 C-17.03298539 0.39903399 -14.13820545 0.33801334 -11.24316406 0.28271484 C-7.49472871 0.21066705 -3.74765101 0.10537928 0 0 Z " fill="#5D74EA" transform="translate(56.1015625,201.80078125)"/>
<path d="M0 0 C3.29557518 -0.00981629 6.59055384 -0.04097601 9.88598633 -0.07226562 C11.99470663 -0.07878733 14.10343133 -0.08404105 16.2121582 -0.08789062 C17.19035019 -0.10023743 18.16854218 -0.11258423 19.17637634 -0.12530518 C25.37920881 -0.10503993 29.84503406 0.59630157 34.66918945 4.85351562 C39.51836503 10.64854688 41.50618716 15.52481092 40.84106445 23.24023438 C39.44687388 29.76758115 36.32377004 33.53793426 30.84106445 37.24023438 C27.66640515 39.11448216 25.25965088 39.51535145 21.58862305 39.60327148 C20.54008148 39.63347885 19.49153992 39.66368622 18.41122437 39.69480896 C17.28205597 39.71882278 16.15288757 39.74283661 14.98950195 39.76757812 C12.58715272 39.83835596 10.18480914 39.90932563 7.7824707 39.98046875 C4.00408095 40.08116374 0.2256382 40.17750182 -3.55297852 40.26928711 C-7.20590332 40.36141183 -10.85807576 40.47002241 -14.51049805 40.58007812 C-15.62752106 40.60206772 -16.74454407 40.62405731 -17.89541626 40.64671326 C-25.97421092 40.8991875 -33.84085839 41.4638841 -40.22143555 46.80273438 C-43.11445604 50.4423408 -43.34070736 52.44164631 -43.40893555 57.05273438 C-43.44760742 58.60927734 -43.44760742 58.60927734 -43.48706055 60.19726562 C-43.04577485 64.28966515 -41.32484514 66.74120775 -38.84643555 69.92773438 C-33.03659967 74.44649561 -25.57568405 73.44749695 -18.6394043 73.33007812 C-16.14786981 73.30965342 -13.65633327 73.28947893 -11.16479492 73.26953125 C-7.25446732 73.22609135 -3.34427923 73.17770464 0.56591797 73.1237793 C4.35163906 73.0753087 8.13717569 73.04556182 11.9230957 73.01757812 C13.08275345 72.99582016 14.24241119 72.97406219 15.43721008 72.9516449 C22.9743926 72.90590651 30.17056437 73.24587904 36.21606445 78.17773438 C36.75231445 78.85835938 37.28856445 79.53898437 37.84106445 80.24023438 C38.39793945 80.92085938 38.95481445 81.60148437 39.52856445 82.30273438 C42.77193038 87.09056027 42.38709791 92.6888942 41.84106445 98.24023438 C40.21367475 103.58231797 37.60142758 107.22146752 32.84106445 110.24023438 C21.42275728 115.68681191 4.48660109 113.45586357 -7.93286133 113.48046875 C-10.91864961 113.49026625 -13.9037736 113.52145587 -16.8894043 113.55273438 C-34.80047186 113.65193528 -49.45878291 111.39116306 -62.90112305 98.62304688 C-74.64741 86.22644646 -77.68252508 69.83118983 -77.3503418 53.17773438 C-76.52400911 40.49605725 -73.78023027 29.47687957 -66.15893555 19.24023438 C-65.29268555 17.94085938 -65.29268555 17.94085938 -64.40893555 16.61523438 C-47.31704375 -1.42620697 -22.85658761 0.04124807 0 0 Z " fill="#A052CB" transform="translate(462.158935546875,191.759765625)"/>
<path d="M0 0 C10.04561865 8.32928179 15.71592891 20.34692103 17.45703125 33.18359375 C18.55787782 45.67344561 18.63601546 58.2562536 18.74313354 70.78762817 C18.76063784 72.54216544 18.78491726 74.29664905 18.81619263 76.05099487 C18.85850975 78.55900573 18.87379457 81.06589308 18.8828125 83.57421875 C18.90027527 84.32262527 18.91773804 85.0710318 18.93572998 85.84211731 C18.91062263 92.0860793 17.09372495 97.51287819 12.640625 102.0234375 C12.06441406 102.38566406 11.48820312 102.74789062 10.89453125 103.12109375 C10.31574219 103.50136719 9.73695313 103.88164062 9.140625 104.2734375 C4.20882875 106.93958257 -1.09822054 106.83904907 -6.54296875 106.18359375 C-12.22192006 103.96927996 -16.04576353 100.05848588 -19.54296875 95.18359375 C-20.65209532 91.85621403 -20.83805191 89.13029461 -21.04296875 85.62109375 C-21.08429932 84.91654053 -21.12562988 84.2119873 -21.16821289 83.48608398 C-21.46490915 77.94231157 -21.62462057 72.39740921 -21.7578125 66.84765625 C-21.78574387 65.73412529 -21.78574387 65.73412529 -21.8142395 64.59809875 C-21.90838939 60.8297531 -21.99335277 57.0616129 -22.0625 53.29272461 C-22.02168939 38.2265202 -22.02168939 38.2265202 -28.54296875 25.18359375 C-33.32867258 21.84473061 -37.88850387 21.44252385 -43.54296875 22.18359375 C-48.24897228 23.87065162 -50.79878533 26.01650041 -53.54296875 30.18359375 C-54.61010008 33.39853131 -54.64249421 36.33958524 -54.59301758 39.71142578 C-54.58003128 40.8200296 -54.56704498 41.92863342 -54.55366516 43.0708313 C-54.53595566 44.26562103 -54.51824615 45.46041077 -54.5 46.69140625 C-54.47760163 49.23046085 -54.45614734 51.76952392 -54.43554688 54.30859375 C-54.39853695 58.3046848 -54.35559552 62.30007384 -54.29614258 66.29589844 C-54.24138757 70.15696355 -54.21247897 74.01754829 -54.1875 77.87890625 C-54.1637178 79.0615506 -54.13993561 80.24419495 -54.11543274 81.462677 C-54.09011147 89.55096297 -54.95890847 97.21429859 -60.578125 103.4375 C-61.58166016 104.08525391 -61.58166016 104.08525391 -62.60546875 104.74609375 C-63.27707031 105.20113281 -63.94867188 105.65617187 -64.640625 106.125 C-69.15233104 108.63562082 -73.51586226 108.75485585 -78.54296875 108.18359375 C-84.72937177 106.32318994 -88.98002099 102.49719405 -92.54296875 97.18359375 C-96.41293274 85.57370177 -94.76153812 70.90827037 -94.78320312 58.79663086 C-94.7929796 55.49242634 -94.82412975 52.18882692 -94.85546875 48.88476562 C-94.86199478 46.75130571 -94.86724682 44.61784143 -94.87109375 42.484375 C-94.88344055 41.51325272 -94.89578735 40.54213043 -94.9085083 39.5415802 C-94.86293036 25.34168199 -89.92100385 12.79152279 -80.10546875 2.5078125 C-59.22415427 -16.43179438 -22.33742619 -15.95530442 0 0 Z " fill="#E736AB" transform="translate(295.54296875,396.81640625)"/>
</svg>
